<svg xmlns="http://www.w3.org/2000/svg" width="800" height="800" viewBox="0 0 800 800">
  <defs><linearGradient id="r" x1="0" y1="0" x2="0" y2="1"><stop offset="0" stop-color="#3a0a18"/><stop offset="1" stop-color="#c83a2a"/></linearGradient></defs>
  <rect width="800" height="800" fill="url(#r)"/>
  <ellipse cx="560" cy="540" rx="230" ry="110" fill="#e8b62a"/>
  <circle cx="330" cy="420" r="170" fill="#d8322a"/><circle cx="330" cy="420" r="170" fill="none" stroke="#f7d36b" stroke-width="12"/>
  <circle cx="270" cy="380" r="40" fill="#fff"/><circle cx="390" cy="380" r="40" fill="#fff"/><circle cx="276" cy="386" r="20" fill="#111"/><circle cx="384" cy="386" r="20" fill="#111"/>
  <path d="M230 330 q100 -60 200 0" stroke="#fff" stroke-width="22" fill="none" stroke-linecap="round"/>
  <ellipse cx="330" cy="500" rx="90" ry="34" fill="#5a0a0a"/><circle cx="330" cy="275" r="22" fill="#e8f0ff"/>
  <g fill="#ffcf4a" opacity=".8"><circle cx="100" cy="120" r="6"/><circle cx="700" cy="160" r="5"/><circle cx="640" cy="90" r="4"/><circle cx="160" cy="220" r="4"/><circle cx="520" cy="250" r="5"/></g>
  <text x="400" y="750" text-anchor="middle" font-family="serif" font-size="44" fill="#f7e2a8" opacity=".85">Múa lân</text>
</svg>
